<svg xmlns="http://www.w3.org/2000/svg" class="markmap mm-2ehdsd-8" style="width: 100%; height: 100%;"><style>.markmap{--markmap-max-width: 9999px;--markmap-a-color: #0097e6;--markmap-a-hover-color: #00a8ff;--markmap-code-bg: #f0f0f0;--markmap-code-color: #555;--markmap-highlight-bg: #ffeaa7;--markmap-table-border: 1px solid currentColor;--markmap-font: 300 16px/20px sans-serif;--markmap-circle-open-bg: #fff;--markmap-text-color: #333;--markmap-highlight-node-bg: #ff02;font:var(--markmap-font);color:var(--markmap-text-color)}.markmap-link{fill:none}.markmap-node&gt;circle{cursor:pointer}.markmap-foreign{display:inline-block}.markmap-foreign p{margin:0}.markmap-foreign a{color:var(--markmap-a-color)}.markmap-foreign a:hover{color:var(--markmap-a-hover-color)}.markmap-foreign code{padding:.25em;font-size:calc(1em - 2px);color:var(--markmap-code-color);background-color:var(--markmap-code-bg);border-radius:2px}.markmap-foreign pre{margin:0}.markmap-foreign pre&gt;code{display:block}.markmap-foreign del{text-decoration:line-through}.markmap-foreign em{font-style:italic}.markmap-foreign strong{font-weight:700}.markmap-foreign mark{background:var(--markmap-highlight-bg)}.markmap-foreign table,.markmap-foreign th,.markmap-foreign td{border-collapse:collapse;border:var(--markmap-table-border)}.markmap-foreign img{display:inline-block}.markmap-foreign svg{fill:currentColor}.markmap-foreign&gt;div{width:var(--markmap-max-width);text-align:left}.markmap-foreign&gt;div&gt;div{display:inline-block}.markmap-highlight rect{fill:var(--markmap-highlight-node-bg)}.markmap-dark .markmap{--markmap-code-bg: #1a1b26;--markmap-code-color: #ddd;--markmap-circle-open-bg: #444;--markmap-text-color: #eee}</style><g transform="translate(20,300) scale(0.5744520030234316)"><path class="markmap-link" data-depth="3" data-path="1.2.3" d="M524,-168.062C564,-168.062,564,-207.812,604,-207.812" stroke-width="1.375" stroke="rgb(44, 160, 44)"/><path class="markmap-link" data-depth="3" data-path="1.2.4" d="M524,-168.062C564,-168.062,564,-181.437,604,-181.437" stroke-width="1.375" stroke="rgb(214, 39, 40)"/><path class="markmap-link" data-depth="3" data-path="1.2.5" d="M524,-168.062C564,-168.062,564,-155.062,604,-155.062" stroke-width="1.375" stroke="rgb(148, 103, 189)"/><path class="markmap-link" data-depth="3" data-path="1.2.6" d="M524,-168.062C564,-168.062,564,-128.687,604,-128.687" stroke-width="1.375" stroke="rgb(140, 86, 75)"/><path class="markmap-link" data-depth="3" data-path="1.7.8" d="M534,-44.375C574,-44.375,574,-97.312,614,-97.312" stroke-width="1.375" stroke="rgb(127, 127, 127)"/><path class="markmap-link" data-depth="3" data-path="1.7.9" d="M534,-44.375C574,-44.375,574,-70.937,614,-70.937" stroke-width="1.375" stroke="rgb(188, 189, 34)"/><path class="markmap-link" data-depth="3" data-path="1.7.10" d="M534,-44.375C574,-44.375,574,-44.562,614,-44.562" stroke-width="1.375" stroke="rgb(23, 190, 207)"/><path class="markmap-link" data-depth="3" data-path="1.7.11" d="M534,-44.375C574,-44.375,574,-18.187,614,-18.187" stroke-width="1.375" stroke="rgb(31, 119, 180)"/><path class="markmap-link" data-depth="3" data-path="1.7.12" d="M534,-44.375C574,-44.375,574,8.188,614,8.188" stroke-width="1.375" stroke="rgb(188, 189, 34)"/><path class="markmap-link" data-depth="3" data-path="1.13.14" d="M532,79.313C572,79.313,572,39.563,612,39.563" stroke-width="1.375" stroke="rgb(31, 119, 180)"/><path class="markmap-link" data-depth="3" data-path="1.13.15" d="M532,79.313C572,79.313,572,65.938,612,65.938" stroke-width="1.375" stroke="rgb(255, 127, 14)"/><path class="markmap-link" data-depth="3" data-path="1.13.16" d="M532,79.313C572,79.313,572,92.313,612,92.313" stroke-width="1.375" stroke="rgb(44, 160, 44)"/><path class="markmap-link" data-depth="3" data-path="1.13.17" d="M532,79.313C572,79.313,572,118.688,612,118.688" stroke-width="1.375" stroke="rgb(214, 39, 40)"/><path class="markmap-link" data-depth="3" data-path="1.18.19" d="M540,189.813C580,189.813,580,150.063,620,150.063" stroke-width="1.375" stroke="rgb(140, 86, 75)"/><path class="markmap-link" data-depth="3" data-path="1.18.20" d="M540,189.813C580,189.813,580,176.438,620,176.438" stroke-width="1.375" stroke="rgb(227, 119, 194)"/><path class="markmap-link" data-depth="3" data-path="1.18.21" d="M540,189.813C580,189.813,580,202.813,620,202.813" stroke-width="1.375" stroke="rgb(127, 127, 127)"/><path class="markmap-link" data-depth="3" data-path="1.18.22" d="M540,189.813C580,189.813,580,229.188,620,229.188" stroke-width="1.375" stroke="rgb(188, 189, 34)"/><path class="markmap-link" data-depth="2" data-path="1.2" d="M279,11.25C319,11.25,319,-168.062,359,-168.062" stroke-width="1.75" stroke="rgb(255, 127, 14)"/><path class="markmap-link" data-depth="2" data-path="1.7" d="M279,11.25C319,11.25,319,-44.375,359,-44.375" stroke-width="1.75" stroke="rgb(227, 119, 194)"/><path class="markmap-link" data-depth="2" data-path="1.13" d="M279,11.25C319,11.25,319,79.313,359,79.313" stroke-width="1.75" stroke="rgb(23, 190, 207)"/><path class="markmap-link" data-depth="2" data-path="1.18" d="M279,11.25C319,11.25,319,189.813,359,189.813" stroke-width="1.75" stroke="rgb(148, 103, 189)"/><g class="markmap-highlight"/><g data-depth="3" data-path="1.2.3" class="markmap-node" transform="translate(604, -228.5)"><line stroke="#2ca02c" stroke-width="1.375" x1="-1" x2="428" y1="20.6875" y2="20.6875"/><foreignObject class="markmap-foreign" x="8" y="0" style="opacity: 1;" width="410" height="20"><div xmlns="http://www.w3.org/1999/xhtml"><div xmlns="http://www.w3.org/1999/xhtml"><strong>4 Management Groups</strong> with inherited policy enforcement</div></div></foreignObject></g><g data-depth="3" data-path="1.2.4" class="markmap-node" transform="translate(604, -202.125)"><line stroke="#d62728" stroke-width="1.375" x1="-1" x2="472" y1="20.6875" y2="20.6875"/><foreignObject class="markmap-foreign" x="8" y="0" style="opacity: 1;" width="454" height="20"><div xmlns="http://www.w3.org/1999/xhtml"><div xmlns="http://www.w3.org/1999/xhtml"><strong>7 policies</strong> bundled into the <strong>NexGen Secure Baseline Initiative</strong></div></div></foreignObject></g><g data-depth="3" data-path="1.2.5" class="markmap-node" transform="translate(604, -175.75)"><line stroke="#9467bd" stroke-width="1.375" x1="-1" x2="416" y1="20.6875" y2="20.6875"/><foreignObject class="markmap-foreign" x="8" y="0" style="opacity: 1;" width="398" height="20"><div xmlns="http://www.w3.org/1999/xhtml"><div xmlns="http://www.w3.org/1999/xhtml"><strong>5 custom RBAC roles</strong> implementing true least-privilege</div></div></foreignObject></g><g data-depth="3" data-path="1.2.6" class="markmap-node" transform="translate(604, -149.375)"><line stroke="#8c564b" stroke-width="1.375" x1="-1" x2="541" y1="20.6875" y2="20.6875"/><foreignObject class="markmap-foreign" x="8" y="0" style="opacity: 1;" width="523" height="20"><div xmlns="http://www.w3.org/1999/xhtml"><div xmlns="http://www.w3.org/1999/xhtml"><strong>Automatic tagging</strong> on every resource (CostCenter, Environment, Owner)</div></div></foreignObject></g><g data-depth="2" data-path="1.2" class="markmap-node" transform="translate(359, -188.9375)"><line stroke="#ff7f0e" stroke-width="1.75" x1="-1" x2="167" y1="20.875" y2="20.875"/><circle stroke-width="1.5" r="6" stroke="#ff7f0e" fill="var(--markmap-circle-open-bg)" cx="165" cy="20.875"/><foreignObject class="markmap-foreign" x="8" y="0" style="opacity: 1;" width="149" height="20"><div xmlns="http://www.w3.org/1999/xhtml"><div xmlns="http://www.w3.org/1999/xhtml">Governance at Scale</div></div></foreignObject></g><g data-depth="3" data-path="1.7.8" class="markmap-node" transform="translate(614, -118)"><line stroke="#7f7f7f" stroke-width="1.375" x1="-1" x2="472" y1="20.6875" y2="20.6875"/><foreignObject class="markmap-foreign" x="8" y="0" style="opacity: 1;" width="454" height="20"><div xmlns="http://www.w3.org/1999/xhtml"><div xmlns="http://www.w3.org/1999/xhtml"><strong>Hub-and-Spoke topology</strong> with Azure Firewall as central egress</div></div></foreignObject></g><g data-depth="3" data-path="1.7.9" class="markmap-node" transform="translate(614, -91.625)"><line stroke="#bcbd22" stroke-width="1.375" x1="-1" x2="394" y1="20.6875" y2="20.6875"/><foreignObject class="markmap-foreign" x="8" y="0" style="opacity: 1;" width="376" height="20"><div xmlns="http://www.w3.org/1999/xhtml"><div xmlns="http://www.w3.org/1999/xhtml"><strong>No public IPs on workloads</strong> — Bastion-only access</div></div></foreignObject></g><g data-depth="3" data-path="1.7.10" class="markmap-node" transform="translate(614, -65.25)"><line stroke="#17becf" stroke-width="1.375" x1="-1" x2="711" y1="20.6875" y2="20.6875"/><foreignObject class="markmap-foreign" x="8" y="0" style="opacity: 1;" width="693" height="20"><div xmlns="http://www.w3.org/1999/xhtml"><div xmlns="http://www.w3.org/1999/xhtml"><strong>Tiered NSGs</strong>: Web allows 80/443, App allows 8080 from Web only, DB allows 1433 from App only</div></div></foreignObject></g><g data-depth="3" data-path="1.7.11" class="markmap-node" transform="translate(614, -38.875)"><line stroke="#1f77b4" stroke-width="1.375" x1="-1" x2="397" y1="20.6875" y2="20.6875"/><foreignObject class="markmap-foreign" x="8" y="0" style="opacity: 1;" width="379" height="20"><div xmlns="http://www.w3.org/1999/xhtml"><div xmlns="http://www.w3.org/1999/xhtml"><strong>Private Endpoints</strong> for Storage, SQL, Key Vault, ACR</div></div></foreignObject></g><g data-depth="3" data-path="1.7.12" class="markmap-node" transform="translate(614, -12.5)"><line stroke="#bcbd22" stroke-width="1.375" x1="-1" x2="436" y1="20.6875" y2="20.6875"/><foreignObject class="markmap-foreign" x="8" y="0" style="opacity: 1;" width="418" height="20"><div xmlns="http://www.w3.org/1999/xhtml"><div xmlns="http://www.w3.org/1999/xhtml"><strong>Private DNS Zones</strong> resolving public FQDNs to internal IPs</div></div></foreignObject></g><g data-depth="2" data-path="1.7" class="markmap-node" transform="translate(359, -65.25)"><line stroke="#e377c2" stroke-width="1.75" x1="-1" x2="177" y1="20.875" y2="20.875"/><circle stroke-width="1.5" r="6" stroke="#e377c2" fill="var(--markmap-circle-open-bg)" cx="175" cy="20.875"/><foreignObject class="markmap-foreign" x="8" y="0" style="opacity: 1;" width="159" height="20"><div xmlns="http://www.w3.org/1999/xhtml"><div xmlns="http://www.w3.org/1999/xhtml">Zero-Trust Networking</div></div></foreignObject></g><g data-depth="3" data-path="1.13.14" class="markmap-node" transform="translate(612, 18.875)"><line stroke="#1f77b4" stroke-width="1.375" x1="-1" x2="455" y1="20.6875" y2="20.6875"/><foreignObject class="markmap-foreign" x="8" y="0" style="opacity: 1;" width="437" height="20"><div xmlns="http://www.w3.org/1999/xhtml"><div xmlns="http://www.w3.org/1999/xhtml"><strong>4 reusable Bicep modules</strong> (VM, App Service, Storage, SQL)</div></div></foreignObject></g><g data-depth="3" data-path="1.13.15" class="markmap-node" transform="translate(612, 45.25)"><line stroke="#ff7f0e" stroke-width="1.375" x1="-1" x2="444" y1="20.6875" y2="20.6875"/><foreignObject class="markmap-foreign" x="8" y="0" style="opacity: 1;" width="426" height="20"><div xmlns="http://www.w3.org/1999/xhtml"><div xmlns="http://www.w3.org/1999/xhtml"><strong>Self-service environment provisioning</strong> via GitHub Actions</div></div></foreignObject></g><g data-depth="3" data-path="1.13.16" class="markmap-node" transform="translate(612, 71.625)"><line stroke="#2ca02c" stroke-width="1.375" x1="-1" x2="331" y1="20.6875" y2="20.6875"/><foreignObject class="markmap-foreign" x="8" y="0" style="opacity: 1;" width="313" height="20"><div xmlns="http://www.w3.org/1999/xhtml"><div xmlns="http://www.w3.org/1999/xhtml"><strong>Approval gates</strong> for production deployments</div></div></foreignObject></g><g data-depth="3" data-path="1.13.17" class="markmap-node" transform="translate(612, 98)"><line stroke="#d62728" stroke-width="1.375" x1="-1" x2="347" y1="20.6875" y2="20.6875"/><foreignObject class="markmap-foreign" x="8" y="0" style="opacity: 1;" width="329" height="20"><div xmlns="http://www.w3.org/1999/xhtml"><div xmlns="http://www.w3.org/1999/xhtml"><strong>Environment auto-tagging</strong> with budget alerts</div></div></foreignObject></g><g data-depth="2" data-path="1.13" class="markmap-node" transform="translate(359, 58.4375)"><line stroke="#17becf" stroke-width="1.75" x1="-1" x2="175" y1="20.875" y2="20.875"/><circle stroke-width="1.5" r="6" stroke="#17becf" fill="var(--markmap-circle-open-bg)" cx="173" cy="20.875"/><foreignObject class="markmap-foreign" x="8" y="0" style="opacity: 1;" width="157" height="20"><div xmlns="http://www.w3.org/1999/xhtml"><div xmlns="http://www.w3.org/1999/xhtml">Developer Experience</div></div></foreignObject></g><g data-depth="3" data-path="1.18.19" class="markmap-node" transform="translate(620, 129.375)"><line stroke="#8c564b" stroke-width="1.375" x1="-1" x2="522" y1="20.6875" y2="20.6875"/><foreignObject class="markmap-foreign" x="8" y="0" style="opacity: 1;" width="504" height="20"><div xmlns="http://www.w3.org/1999/xhtml"><div xmlns="http://www.w3.org/1999/xhtml"><strong>Compliance Dashboard</strong> (Azure Workbook) with real-time policy status</div></div></foreignObject></g><g data-depth="3" data-path="1.18.20" class="markmap-node" transform="translate(620, 155.75)"><line stroke="#e377c2" stroke-width="1.375" x1="-1" x2="435" y1="20.6875" y2="20.6875"/><foreignObject class="markmap-foreign" x="8" y="0" style="opacity: 1;" width="417" height="20"><div xmlns="http://www.w3.org/1999/xhtml"><div xmlns="http://www.w3.org/1999/xhtml"><strong>Cost Dashboard</strong> tracking spend by environment and team</div></div></foreignObject></g><g data-depth="3" data-path="1.18.21" class="markmap-node" transform="translate(620, 182.125)"><line stroke="#7f7f7f" stroke-width="1.375" x1="-1" x2="430" y1="20.6875" y2="20.6875"/><foreignObject class="markmap-foreign" x="8" y="0" style="opacity: 1;" width="412" height="20"><div xmlns="http://www.w3.org/1999/xhtml"><div xmlns="http://www.w3.org/1999/xhtml"><strong>Backup policies</strong> with 30-day retention and instant restore</div></div></foreignObject></g><g data-depth="3" data-path="1.18.22" class="markmap-node" transform="translate(620, 208.5)"><line stroke="#bcbd22" stroke-width="1.375" x1="-1" x2="507" y1="20.6875" y2="20.6875"/><foreignObject class="markmap-foreign" x="8" y="0" style="opacity: 1;" width="489" height="20"><div xmlns="http://www.w3.org/1999/xhtml"><div xmlns="http://www.w3.org/1999/xhtml"><strong>Automated alerts</strong> for resource group deletion and budget thresholds</div></div></foreignObject></g><g data-depth="2" data-path="1.18" class="markmap-node" transform="translate(359, 168.9375)"><line stroke="#9467bd" stroke-width="1.75" x1="-1" x2="183" y1="20.875" y2="20.875"/><circle stroke-width="1.5" r="6" stroke="#9467bd" fill="var(--markmap-circle-open-bg)" cx="181" cy="20.875"/><foreignObject class="markmap-foreign" x="8" y="0" style="opacity: 1;" width="165" height="20"><div xmlns="http://www.w3.org/1999/xhtml"><div xmlns="http://www.w3.org/1999/xhtml">Operational Excellence</div></div></foreignObject></g><g data-depth="1" data-path="1" class="markmap-node" transform="translate(0, -10)"><line stroke="#1f77b4" stroke-width="2.5" x1="-1" x2="281" y1="21.25" y2="21.25"/><circle stroke-width="1.5" r="6" stroke="#1f77b4" fill="var(--markmap-circle-open-bg)" cx="279" cy="21.25"/><foreignObject class="markmap-foreign" x="8" y="0" style="opacity: 1;" width="263" height="20"><div xmlns="http://www.w3.org/1999/xhtml"><div xmlns="http://www.w3.org/1999/xhtml">🏛️ Enterprise Architecture Highlights</div></div></foreignObject></g></g></svg>