<svg xmlns="http://www.w3.org/2000/svg" class="markmap mm-2ehdsd-5" style="width: 100%; height: 100%;"><style>.markmap{--markmap-max-width: 9999px;--markmap-a-color: #0097e6;--markmap-a-hover-color: #00a8ff;--markmap-code-bg: #f0f0f0;--markmap-code-color: #555;--markmap-highlight-bg: #ffeaa7;--markmap-table-border: 1px solid currentColor;--markmap-font: 300 16px/20px sans-serif;--markmap-circle-open-bg: #fff;--markmap-text-color: #333;--markmap-highlight-node-bg: #ff02;font:var(--markmap-font);color:var(--markmap-text-color)}.markmap-link{fill:none}.markmap-node&gt;circle{cursor:pointer}.markmap-foreign{display:inline-block}.markmap-foreign p{margin:0}.markmap-foreign a{color:var(--markmap-a-color)}.markmap-foreign a:hover{color:var(--markmap-a-hover-color)}.markmap-foreign code{padding:.25em;font-size:calc(1em - 2px);color:var(--markmap-code-color);background-color:var(--markmap-code-bg);border-radius:2px}.markmap-foreign pre{margin:0}.markmap-foreign pre&gt;code{display:block}.markmap-foreign del{text-decoration:line-through}.markmap-foreign em{font-style:italic}.markmap-foreign strong{font-weight:700}.markmap-foreign mark{background:var(--markmap-highlight-bg)}.markmap-foreign table,.markmap-foreign th,.markmap-foreign td{border-collapse:collapse;border:var(--markmap-table-border)}.markmap-foreign img{display:inline-block}.markmap-foreign svg{fill:currentColor}.markmap-foreign&gt;div{width:var(--markmap-max-width);text-align:left}.markmap-foreign&gt;div&gt;div{display:inline-block}.markmap-highlight rect{fill:var(--markmap-highlight-node-bg)}.markmap-dark .markmap{--markmap-code-bg: #1a1b26;--markmap-code-color: #ddd;--markmap-circle-open-bg: #444;--markmap-text-color: #eee}</style><g transform="translate(20,291.22373029772325) scale(0.6654991243432574)"><path class="markmap-link" data-depth="3" data-path="1.2.3" d="M627,-158.875C667,-158.875,667,-185.437,707,-185.437" stroke-width="1.375" stroke="rgb(44, 160, 44)"/><path class="markmap-link" data-depth="3" data-path="1.2.4" d="M627,-158.875C667,-158.875,667,-159.062,707,-159.062" stroke-width="1.375" stroke="rgb(214, 39, 40)"/><path class="markmap-link" data-depth="3" data-path="1.2.5" d="M627,-158.875C667,-158.875,667,-132.687,707,-132.687" stroke-width="1.375" stroke="rgb(148, 103, 189)"/><path class="markmap-link" data-depth="3" data-path="1.6.7" d="M673,-61.562C713,-61.562,713,-101.312,753,-101.312" stroke-width="1.375" stroke="rgb(214, 39, 40)"/><path class="markmap-link" data-depth="3" data-path="1.6.8" d="M673,-61.562C713,-61.562,713,-74.937,753,-74.937" stroke-width="1.375" stroke="rgb(148, 103, 189)"/><path class="markmap-link" data-depth="3" data-path="1.6.9" d="M673,-61.562C713,-61.562,713,-48.562,753,-48.562" stroke-width="1.375" stroke="rgb(140, 86, 75)"/><path class="markmap-link" data-depth="3" data-path="1.6.10" d="M673,-61.562C713,-61.562,713,-22.187,753,-22.187" stroke-width="1.375" stroke="rgb(227, 119, 194)"/><path class="markmap-link" data-depth="3" data-path="1.11.12" d="M441,52.938C481,52.938,481,11.188,521,11.188" stroke-width="1.375" stroke="rgb(188, 189, 34)"/><path class="markmap-link" data-depth="3" data-path="1.11.13" d="M441,52.938C481,52.938,481,39.563,521,39.563" stroke-width="1.375" stroke="rgb(23, 190, 207)"/><path class="markmap-link" data-depth="3" data-path="1.11.14" d="M441,52.938C481,52.938,481,67.938,521,67.938" stroke-width="1.375" stroke="rgb(31, 119, 180)"/><path class="markmap-link" data-depth="3" data-path="1.11.15" d="M441,52.938C481,52.938,481,96.313,521,96.313" stroke-width="1.375" stroke="rgb(255, 127, 14)"/><path class="markmap-link" data-depth="3" data-path="1.16.17" d="M383,180.625C423,180.625,423,127.688,463,127.688" stroke-width="1.375" stroke="rgb(214, 39, 40)"/><path class="markmap-link" data-depth="3" data-path="1.16.18" d="M383,180.625C423,180.625,423,154.063,463,154.063" stroke-width="1.375" stroke="rgb(148, 103, 189)"/><path class="markmap-link" data-depth="3" data-path="1.16.19" d="M383,180.625C423,180.625,423,180.438,463,180.438" stroke-width="1.375" stroke="rgb(140, 86, 75)"/><path class="markmap-link" data-depth="3" data-path="1.16.20" d="M383,180.625C423,180.625,423,206.813,463,206.813" stroke-width="1.375" stroke="rgb(227, 119, 194)"/><path class="markmap-link" data-depth="3" data-path="1.16.21" d="M383,180.625C423,180.625,423,233.188,463,233.188" stroke-width="1.375" stroke="rgb(127, 127, 127)"/><path class="markmap-link" data-depth="2" data-path="1.2" d="M246,11.25C286,11.25,286,-158.875,326,-158.875" stroke-width="1.75" stroke="rgb(255, 127, 14)"/><path class="markmap-link" data-depth="2" data-path="1.6" d="M246,11.25C286,11.25,286,-61.562,326,-61.562" stroke-width="1.75" stroke="rgb(44, 160, 44)"/><path class="markmap-link" data-depth="2" data-path="1.11" d="M246,11.25C286,11.25,286,52.938,326,52.938" stroke-width="1.75" stroke="rgb(127, 127, 127)"/><path class="markmap-link" data-depth="2" data-path="1.16" d="M246,11.25C286,11.25,286,180.625,326,180.625" stroke-width="1.75" stroke="rgb(44, 160, 44)"/><g class="markmap-highlight"/><g data-depth="3" data-path="1.2.3" class="markmap-node" transform="translate(707, -206.125)"><line stroke="#2ca02c" stroke-width="1.375" x1="-1" x2="404" y1="20.6875" y2="20.6875"/><foreignObject class="markmap-foreign" x="8" y="0" style="opacity: 1;" width="386" height="20"><div xmlns="http://www.w3.org/1999/xhtml"><div xmlns="http://www.w3.org/1999/xhtml">1. Go to Issues → New Issue → Request Environment</div></div></foreignObject></g><g data-depth="3" data-path="1.2.4" class="markmap-node" transform="translate(707, -179.75)"><line stroke="#d62728" stroke-width="1.375" x1="-1" x2="166" y1="20.6875" y2="20.6875"/><foreignObject class="markmap-foreign" x="8" y="0" style="opacity: 1;" width="148" height="20"><div xmlns="http://www.w3.org/1999/xhtml"><div xmlns="http://www.w3.org/1999/xhtml">2. Fill in the template</div></div></foreignObject></g><g data-depth="3" data-path="1.2.5" class="markmap-node" transform="translate(707, -153.375)"><line stroke="#9467bd" stroke-width="1.375" x1="-1" x2="437" y1="20.6875" y2="20.6875"/><foreignObject class="markmap-foreign" x="8" y="0" style="opacity: 1;" width="419" height="20"><div xmlns="http://www.w3.org/1999/xhtml"><div xmlns="http://www.w3.org/1999/xhtml">3. The platform team will review and trigger the deployment</div></div></foreignObject></g><g data-depth="2" data-path="1.2" class="markmap-node" transform="translate(326, -179.75)"><line stroke="#ff7f0e" stroke-width="1.75" x1="-1" x2="303" y1="20.875" y2="20.875"/><circle stroke-width="1.5" r="6" stroke="#ff7f0e" fill="var(--markmap-circle-open-bg)" cx="301" cy="20.875"/><foreignObject class="markmap-foreign" x="8" y="0" style="opacity: 1;" width="285" height="20"><div xmlns="http://www.w3.org/1999/xhtml"><div xmlns="http://www.w3.org/1999/xhtml">Option 1: GitHub Issue (Recommended)</div></div></foreignObject></g><g data-depth="3" data-path="1.6.7" class="markmap-node" transform="translate(753, -122)"><line stroke="#d62728" stroke-width="1.375" x1="-1" x2="316" y1="20.6875" y2="20.6875"/><foreignObject class="markmap-foreign" x="8" y="0" style="opacity: 1;" width="298" height="20"><div xmlns="http://www.w3.org/1999/xhtml"><div xmlns="http://www.w3.org/1999/xhtml">1. Go to Actions → Provision Environment</div></div></foreignObject></g><g data-depth="3" data-path="1.6.8" class="markmap-node" transform="translate(753, -95.625)"><line stroke="#9467bd" stroke-width="1.375" x1="-1" x2="280" y1="20.6875" y2="20.6875"/><foreignObject class="markmap-foreign" x="8" y="0" style="opacity: 1;" width="262" height="20"><div xmlns="http://www.w3.org/1999/xhtml"><div xmlns="http://www.w3.org/1999/xhtml">2. Select environment (dev/test/prod)</div></div></foreignObject></g><g data-depth="3" data-path="1.6.9" class="markmap-node" transform="translate(753, -69.25)"><line stroke="#8c564b" stroke-width="1.375" x1="-1" x2="171" y1="20.6875" y2="20.6875"/><foreignObject class="markmap-foreign" x="8" y="0" style="opacity: 1;" width="153" height="20"><div xmlns="http://www.w3.org/1999/xhtml"><div xmlns="http://www.w3.org/1999/xhtml">3. Click Run workflow</div></div></foreignObject></g><g data-depth="3" data-path="1.6.10" class="markmap-node" transform="translate(753, -42.875)"><line stroke="#e377c2" stroke-width="1.375" x1="-1" x2="362" y1="20.6875" y2="20.6875"/><foreignObject class="markmap-foreign" x="8" y="0" style="opacity: 1;" width="344" height="20"><div xmlns="http://www.w3.org/1999/xhtml"><div xmlns="http://www.w3.org/1999/xhtml">4. For prod: requires approval from platform lead</div></div></foreignObject></g><g data-depth="2" data-path="1.6" class="markmap-node" transform="translate(326, -82.4375)"><line stroke="#2ca02c" stroke-width="1.75" x1="-1" x2="349" y1="20.875" y2="20.875"/><circle stroke-width="1.5" r="6" stroke="#2ca02c" fill="var(--markmap-circle-open-bg)" cx="347" cy="20.875"/><foreignObject class="markmap-foreign" x="8" y="0" style="opacity: 1;" width="331" height="20"><div xmlns="http://www.w3.org/1999/xhtml"><div xmlns="http://www.w3.org/1999/xhtml">Option 2: Manual Trigger (Platform Team Only)</div></div></foreignObject></g><g data-depth="3" data-path="1.11.12" class="markmap-node" transform="translate(521, -11.5)"><line stroke="#bcbd22" stroke-width="1.375" x1="-1" x2="251" y1="22.6875" y2="22.6875"/><foreignObject class="markmap-foreign" x="8" y="0" style="opacity: 1;" width="233" height="22"><div xmlns="http://www.w3.org/1999/xhtml"><div xmlns="http://www.w3.org/1999/xhtml">Resource Group: <code>rg-nexgen-{env}</code></div></div></foreignObject></g><g data-depth="3" data-path="1.11.13" class="markmap-node" transform="translate(521, 16.875)"><line stroke="#17becf" stroke-width="1.375" x1="-1" x2="347" y1="22.6875" y2="22.6875"/><foreignObject class="markmap-foreign" x="8" y="0" style="opacity: 1;" width="329" height="22"><div xmlns="http://www.w3.org/1999/xhtml"><div xmlns="http://www.w3.org/1999/xhtml">App Service: <code>app-nexgen-{env}.azurewebsites.net</code></div></div></foreignObject></g><g data-depth="3" data-path="1.11.14" class="markmap-node" transform="translate(521, 45.25)"><line stroke="#1f77b4" stroke-width="1.375" x1="-1" x2="364" y1="22.6875" y2="22.6875"/><foreignObject class="markmap-foreign" x="8" y="0" style="opacity: 1;" width="346" height="22"><div xmlns="http://www.w3.org/1999/xhtml"><div xmlns="http://www.w3.org/1999/xhtml">SQL Server: <code>sql-nexgen-{env}.database.windows.net</code></div></div></foreignObject></g><g data-depth="3" data-path="1.11.15" class="markmap-node" transform="translate(521, 73.625)"><line stroke="#ff7f0e" stroke-width="1.375" x1="-1" x2="263" y1="22.6875" y2="22.6875"/><foreignObject class="markmap-foreign" x="8" y="0" style="opacity: 1;" width="245" height="22"><div xmlns="http://www.w3.org/1999/xhtml"><div xmlns="http://www.w3.org/1999/xhtml">Storage Account: <code>stnexgen{env}001</code></div></div></foreignObject></g><g data-depth="2" data-path="1.11" class="markmap-node" transform="translate(326, 32.0625)"><line stroke="#7f7f7f" stroke-width="1.75" x1="-1" x2="117" y1="20.875" y2="20.875"/><circle stroke-width="1.5" r="6" stroke="#7f7f7f" fill="var(--markmap-circle-open-bg)" cx="115" cy="20.875"/><foreignObject class="markmap-foreign" x="8" y="0" style="opacity: 1;" width="99" height="20"><div xmlns="http://www.w3.org/1999/xhtml"><div xmlns="http://www.w3.org/1999/xhtml">What You Get</div></div></foreignObject></g><g data-depth="3" data-path="1.16.17" class="markmap-node" transform="translate(463, 107)"><line stroke="#d62728" stroke-width="1.375" x1="-1" x2="289" y1="20.6875" y2="20.6875"/><foreignObject class="markmap-foreign" x="8" y="0" style="opacity: 1;" width="271" height="20"><div xmlns="http://www.w3.org/1999/xhtml"><div xmlns="http://www.w3.org/1999/xhtml">All resources are tagged automatically</div></div></foreignObject></g><g data-depth="3" data-path="1.16.18" class="markmap-node" transform="translate(463, 133.375)"><line stroke="#9467bd" stroke-width="1.375" x1="-1" x2="171" y1="20.6875" y2="20.6875"/><foreignObject class="markmap-foreign" x="8" y="0" style="opacity: 1;" width="153" height="20"><div xmlns="http://www.w3.org/1999/xhtml"><div xmlns="http://www.w3.org/1999/xhtml">No public IPs on VMs</div></div></foreignObject></g><g data-depth="3" data-path="1.16.19" class="markmap-node" transform="translate(463, 159.75)"><line stroke="#8c564b" stroke-width="1.375" x1="-1" x2="243" y1="20.6875" y2="20.6875"/><foreignObject class="markmap-foreign" x="8" y="0" style="opacity: 1;" width="225" height="20"><div xmlns="http://www.w3.org/1999/xhtml"><div xmlns="http://www.w3.org/1999/xhtml">All data traffic stays inside VNet</div></div></foreignObject></g><g data-depth="3" data-path="1.16.20" class="markmap-node" transform="translate(463, 186.125)"><line stroke="#e377c2" stroke-width="1.375" x1="-1" x2="284" y1="20.6875" y2="20.6875"/><foreignObject class="markmap-foreign" x="8" y="0" style="opacity: 1;" width="266" height="20"><div xmlns="http://www.w3.org/1999/xhtml"><div xmlns="http://www.w3.org/1999/xhtml">Budget alert at $50 (dev) / $100 (test)</div></div></foreignObject></g><g data-depth="3" data-path="1.16.21" class="markmap-node" transform="translate(463, 212.5)"><line stroke="#7f7f7f" stroke-width="1.375" x1="-1" x2="279" y1="20.6875" y2="20.6875"/><foreignObject class="markmap-foreign" x="8" y="0" style="opacity: 1;" width="261" height="20"><div xmlns="http://www.w3.org/1999/xhtml"><div xmlns="http://www.w3.org/1999/xhtml">Auto-shutdown tag on dev resources</div></div></foreignObject></g><g data-depth="2" data-path="1.16" class="markmap-node" transform="translate(326, 159.75)"><line stroke="#2ca02c" stroke-width="1.75" x1="-1" x2="59" y1="20.875" y2="20.875"/><circle stroke-width="1.5" r="6" stroke="#2ca02c" fill="var(--markmap-circle-open-bg)" cx="57" cy="20.875"/><foreignObject class="markmap-foreign" x="8" y="0" style="opacity: 1;" width="41" height="20"><div xmlns="http://www.w3.org/1999/xhtml"><div xmlns="http://www.w3.org/1999/xhtml">Rules</div></div></foreignObject></g><g data-depth="1" data-path="1" class="markmap-node" transform="translate(0, -10)"><line stroke="#1f77b4" stroke-width="2.5" x1="-1" x2="248" y1="21.25" y2="21.25"/><circle stroke-width="1.5" r="6" stroke="#1f77b4" fill="var(--markmap-circle-open-bg)" cx="246" cy="21.25"/><foreignObject class="markmap-foreign" x="8" y="0" style="opacity: 1;" width="230" height="20"><div xmlns="http://www.w3.org/1999/xhtml"><div xmlns="http://www.w3.org/1999/xhtml">How to Request an Environment</div></div></foreignObject></g></g></svg>